ffmpeg started on 2025-05-12 at 15:09:40
Report written to "D:\Convert\FFMetrics\reports\psnr_report-6.txt"
Log level: 32
Command line:
ffmpeg -hide_banner -nostdin -i "G:\\\xc0\xed\xe8\xec\xe5\\\xce\xed\xe3\xee\xe8\xed\xe3\xe8\\!_35_\xcb\xe5\xf2\xee_2024\\DreamCast\\\xc6\xe8\xe7\xed\xfc \xf1 \xec\xee\xe5\xe9 \xf1\xe2\xee\xe4\xed\xee\xe9 \xf1\xe5\xf1\xf2\xf0\xee\xe9\\[DC] Gimai Seikatsu - 04_Telegram_HEVC.mkv" -i "G:\\\xc0\xed\xe8\xec\xe5\\\xce\xed\xe3\xee\xe8\xed\xe3\xe8\\!_35_\xcb\xe5\xf2\xee_2024\\DreamCast\\\xc6\xe8\xe7\xed\xfc \xf1 \xec\xee\xe5\xe9 \xf1\xe2\xee\xe4\xed\xee\xe9 \xf1\xe5\xf1\xf2\xf0\xee\xe9\\[DC] Gimai Seikatsu - 04_Telegram.mp4" -lavfi "[0:v]settb=AVTB,setpts=PTS-STARTPTS,format=pix_fmts=yuv420p10,fps=24000/1001,scale=1920:1080:flags=bicubic[main];[1:v]settb=AVTB,setpts=PTS-STARTPTS,format=pix_fmts=yuv420p,fps=24000/1001,scale=1920:1080:flags=bicubic[ref];[main][ref]psnr=eof_action=endall:stats_file='D\\:/Convert/FFMetrics/logs/psnr_logfile-6.txt'" -f null -
Input #0, matroska,webm, from 'G:\Аниме\Онгоинги\!_35_Лето_2024\DreamCast\Жизнь с моей сводной сестрой\[DC] Gimai Seikatsu - 04_Telegram_HEVC.mkv':
  Metadata:
    COMPATIBLE_BRANDS: isomiso2avc1mp41
    MAJOR_BRAND     : isom
    MINOR_VERSION   : 512
    ENCODER         : Lavf61.7.100
  Duration: 00:23:56.63, start: -0.021000, bitrate: 833 kb/s
  Stream #0:0: Video: hevc (Main 10), yuv420p10le(tv, bt709, progressive), 1920x1080 [SAR 1:1 DAR 16:9], 23.98 fps, 23.98 tbr, 1k tbn (default)
      Metadata:
        HANDLER_NAME    : VideoHandler
        VENDOR_ID       : [0][0][0][0]
        ENCODER         : Lavc61.19.100 libx265
        BPS             : 636403
        DURATION        : 00:23:56.518708333
        NUMBER_OF_FRAMES: 34442
        NUMBER_OF_BYTES : 114275566
        _STATISTICS_WRITING_APP: mkvpropedit v66.0.0 ('Josie') 64-bit
        _STATISTICS_WRITING_DATE_UTC: 2025-05-07 12:52:46
        _STATISTICS_TAGS: BPS DURATION NUMBER_OF_FRAMES NUMBER_OF_BYTES
  Stream #0:1: Audio: aac (LC), 48000 Hz, stereo, fltp (default)
      Metadata:
        HANDLER_NAME    : SoundHandler
        VENDOR_ID       : [0][0][0][0]
        ENCODER         : Lavc61.19.100 aac
        BPS             : 192775
        DURATION        : 00:23:56.629000000
        NUMBER_OF_FRAMES: 67343
        NUMBER_OF_BYTES : 34618349
        _STATISTICS_WRITING_APP: mkvpropedit v66.0.0 ('Josie') 64-bit
        _STATISTICS_WRITING_DATE_UTC: 2025-05-07 12:52:46
        _STATISTICS_TAGS: BPS DURATION NUMBER_OF_FRAMES NUMBER_OF_BYTES
Input #1, mov,mp4,m4a,3gp,3g2,mj2, from 'G:\Аниме\Онгоинги\!_35_Лето_2024\DreamCast\Жизнь с моей сводной сестрой\[DC] Gimai Seikatsu - 04_Telegram.mp4':
  Metadata:
    major_brand     : isom
    minor_version   : 512
    compatible_brands: isomiso2avc1mp41
    encoder         : Lavf61.1.100
  Duration: 00:23:56.58, start: 0.000000, bitrate: 3652 kb/s
  Stream #1:0[0x1](und): Video: h264 (High) (avc1 / 0x31637661), yuv420p(tv, bt709, progressive), 1920x1080 [SAR 1:1 DAR 16:9], 3504 kb/s, 23.98 fps, 23.98 tbr, 24k tbn (default)
      Metadata:
        handler_name    : VideoHandler
        vendor_id       : [0][0][0][0]
        encoder         : Lavc61.3.100 h264_qsv
  Stream #1:1[0x2](und): Audio: aac (HE-AACv2) (mp4a / 0x6134706D), 48000 Hz, stereo, fltp, 144 kb/s (default)
      Metadata:
        handler_name    : SoundHandler
        vendor_id       : [0][0][0][0]
Stream mapping:
  Stream #0:0 (hevc) -> settb:default
  Stream #1:0 (h264) -> settb:default
  psnr:default -> Stream #0:0 (wrapped_avframe)
  Stream #0:1 -> #0:1 (aac (native) -> pcm_s16le (native))
Output #0, null, to 'pipe:':
  Metadata:
    COMPATIBLE_BRANDS: isomiso2avc1mp41
    MAJOR_BRAND     : isom
    MINOR_VERSION   : 512
    encoder         : Lavf61.7.100
  Stream #0:0: Video: wrapped_avframe, yuv420p10le(tv, bt709, progressive), 1920x1080 [SAR 1:1 DAR 16:9], q=2-31, 200 kb/s, 23.98 fps, 23.98 tbn
      Metadata:
        encoder         : Lavc61.19.100 wrapped_avframe
  Stream #0:1: Audio: pcm_s16le, 48000 Hz, stereo, s16, 1536 kb/s (default)
      Metadata:
        HANDLER_NAME    : SoundHandler
        VENDOR_ID       : [0][0][0][0]
        _STATISTICS_TAGS: BPS DURATION NUMBER_OF_FRAMES NUMBER_OF_BYTES
        BPS             : 192775
        DURATION        : 00:23:56.629000000
        NUMBER_OF_FRAMES: 67343
        NUMBER_OF_BYTES : 34618349
        _STATISTICS_WRITING_APP: mkvpropedit v66.0.0 ('Josie') 64-bit
        _STATISTICS_WRITING_DATE_UTC: 2025-05-07 12:52:46
        encoder         : Lavc61.19.100 pcm_s16le
frame=  170 fps=0.0 q=-0.0 size=N/A time=00:00:07.09 bitrate=N/A speed=13.6x    frame=  402 fps=390 q=-0.0 size=N/A time=00:00:16.76 bitrate=N/A speed=16.3x    frame=  656 fps=421 q=-0.0 size=N/A time=00:00:27.36 bitrate=N/A speed=17.6x    frame=  902 fps=437 q=-0.0 size=N/A time=00:00:37.62 bitrate=N/A speed=18.2x    frame= 1149 fps=444 q=-0.0 size=N/A time=00:00:47.92 bitrate=N/A speed=18.5x    frame= 1377 fps=445 q=-0.0 size=N/A time=00:00:57.43 bitrate=N/A speed=18.6x    frame= 1633 fps=451 q=-0.0 size=N/A time=00:01:08.10 bitrate=N/A speed=18.8x    frame= 1863 fps=452 q=-0.0 size=N/A time=00:01:17.70 bitrate=N/A speed=18.8x    frame= 2101 fps=452 q=-0.0 size=N/A time=00:01:27.62 bitrate=N/A speed=18.9x    frame= 2327 fps=450 q=-0.0 size=N/A time=00:01:37.05 bitrate=N/A speed=18.8x    frame= 2582 fps=455 q=-0.0 size=N/A time=00:01:47.69 bitrate=N/A speed=  19x    frame= 2847 fps=459 q=-0.0 size=N/A time=00:01:58.74 bitrate=N/A speed=19.2x    frame= 3106 fps=463 q=-0.0 size=N/A time=00:02:09.54 bitrate=N/A speed=19.3x    frame= 3368 fps=466 q=-0.0 size=N/A time=00:02:20.47 bitrate=N/A speed=19.4x    frame= 3589 fps=463 q=-0.0 size=N/A time=00:02:29.69 bitrate=N/A speed=19.3x    frame= 3830 fps=463 q=-0.0 size=N/A time=00:02:39.74 bitrate=N/A speed=19.3x    frame= 4037 fps=459 q=-0.0 size=N/A time=00:02:48.37 bitrate=N/A speed=19.2x    frame= 4288 fps=461 q=-0.0 size=N/A time=00:02:58.84 bitrate=N/A speed=19.2x    frame= 4546 fps=463 q=-0.0 size=N/A time=00:03:09.60 bitrate=N/A speed=19.3x    frame= 4665 fps=452 q=-0.0 size=N/A time=00:03:14.56 bitrate=N/A speed=18.8x    frame= 4851 fps=447 q=-0.0 size=N/A time=00:03:22.32 bitrate=N/A speed=18.6x    frame= 5095 fps=448 q=-0.0 size=N/A time=00:03:32.50 bitrate=N/A speed=18.7x    frame= 5354 fps=451 q=-0.0 size=N/A time=00:03:43.30 bitrate=N/A speed=18.8x    frame= 5615 fps=453 q=-0.0 size=N/A time=00:03:54.19 bitrate=N/A speed=18.9x    frame= 5884 fps=456 q=-0.0 size=N/A time=00:04:05.41 bitrate=N/A speed=  19x    frame= 6144 fps=457 q=-0.0 size=N/A time=00:04:16.25 bitrate=N/A speed=19.1x    frame= 6409 fps=460 q=-0.0 size=N/A time=00:04:27.30 bitrate=N/A speed=19.2x    frame= 6674 fps=461 q=-0.0 size=N/A time=00:04:38.36 bitrate=N/A speed=19.2x    frame= 6928 fps=463 q=-0.0 size=N/A time=00:04:48.95 bitrate=N/A speed=19.3x    frame= 7193 fps=464 q=-0.0 size=N/A time=00:05:00.00 bitrate=N/A speed=19.4x    frame= 7457 fps=466 q=-0.0 size=N/A time=00:05:11.01 bitrate=N/A speed=19.4x    frame= 7728 fps=468 q=-0.0 size=N/A time=00:05:22.32 bitrate=N/A speed=19.5x    frame= 7989 fps=469 q=-0.0 size=N/A time=00:05:33.20 bitrate=N/A speed=19.6x    frame= 8256 fps=470 q=-0.0 size=N/A time=00:05:44.34 bitrate=N/A speed=19.6x    frame= 8519 fps=472 q=-0.0 size=N/A time=00:05:55.31 bitrate=N/A speed=19.7x    frame= 8791 fps=473 q=-0.0 size=N/A time=00:06:06.65 bitrate=N/A speed=19.7x    frame= 9062 fps=474 q=-0.0 size=N/A time=00:06:17.96 bitrate=N/A speed=19.8x    frame= 9326 fps=475 q=-0.0 size=N/A time=00:06:28.97 bitrate=N/A speed=19.8x    frame= 9576 fps=476 q=-0.0 size=N/A time=00:06:39.39 bitrate=N/A speed=19.8x    frame= 9853 fps=477 q=-0.0 size=N/A time=00:06:50.95 bitrate=N/A speed=19.9x    frame=10126 fps=478 q=-0.0 size=N/A time=00:07:02.33 bitrate=N/A speed=  20x    frame=10386 fps=479 q=-0.0 size=N/A time=00:07:13.18 bitrate=N/A speed=  20x    frame=10652 fps=480 q=-0.0 size=N/A time=00:07:24.27 bitrate=N/A speed=  20x    frame=10892 fps=480 q=-0.0 size=N/A time=00:07:34.28 bitrate=N/A speed=  20x    frame=11161 fps=480 q=-0.0 size=N/A time=00:07:45.50 bitrate=N/A speed=  20x    frame=11435 fps=482 q=-0.0 size=N/A time=00:07:56.93 bitrate=N/A speed=20.1x    frame=11720 fps=483 q=-0.0 size=N/A time=00:08:08.82 bitrate=N/A speed=20.2x    frame=11999 fps=484 q=-0.0 size=N/A time=00:08:20.45 bitrate=N/A speed=20.2x    frame=12271 fps=485 q=-0.0 size=N/A time=00:08:31.80 bitrate=N/A speed=20.2x    frame=12540 fps=486 q=-0.0 size=N/A time=00:08:43.02 bitrate=N/A speed=20.3x    frame=12800 fps=486 q=-0.0 size=N/A time=00:08:53.86 bitrate=N/A speed=20.3x    frame=13068 fps=487 q=-0.0 size=N/A time=00:09:05.04 bitrate=N/A speed=20.3x    frame=13346 fps=488 q=-0.0 size=N/A time=00:09:16.63 bitrate=N/A speed=20.3x    frame=13618 fps=489 q=-0.0 size=N/A time=00:09:27.98 bitrate=N/A speed=20.4x    frame=13897 fps=490 q=-0.0 size=N/A time=00:09:39.62 bitrate=N/A speed=20.4x    frame=14159 fps=490 q=-0.0 size=N/A time=00:09:50.54 bitrate=N/A speed=20.4x    frame=14440 fps=491 q=-0.0 size=N/A time=00:10:02.26 bitrate=N/A speed=20.5x    frame=14708 fps=492 q=-0.0 size=N/A time=00:10:13.44 bitrate=N/A speed=20.5x    frame=14961 fps=491 q=-0.0 size=N/A time=00:10:23.99 bitrate=N/A speed=20.5x    frame=15203 fps=491 q=-0.0 size=N/A time=00:10:34.09 bitrate=N/A speed=20.5x    frame=15473 fps=492 q=-0.0 size=N/A time=00:10:45.35 bitrate=N/A speed=20.5x    frame=15744 fps=492 q=-0.0 size=N/A time=00:10:56.65 bitrate=N/A speed=20.5x    frame=16013 fps=493 q=-0.0 size=N/A time=00:11:07.87 bitrate=N/A speed=20.5x    frame=16277 fps=493 q=-0.0 size=N/A time=00:11:18.88 bitrate=N/A speed=20.6x    frame=16524 fps=493 q=-0.0 size=N/A time=00:11:29.18 bitrate=N/A speed=20.6x    frame=16794 fps=493 q=-0.0 size=N/A time=00:11:40.44 bitrate=N/A speed=20.6x    frame=17067 fps=494 q=-0.0 size=N/A time=00:11:51.83 bitrate=N/A speed=20.6x    frame=17342 fps=494 q=-0.0 size=N/A time=00:12:03.30 bitrate=N/A speed=20.6x    frame=17601 fps=494 q=-0.0 size=N/A time=00:12:14.10 bitrate=N/A speed=20.6x    frame=17852 fps=494 q=-0.0 size=N/A time=00:12:24.57 bitrate=N/A speed=20.6x    frame=18103 fps=494 q=-0.0 size=N/A time=00:12:35.04 bitrate=N/A speed=20.6x    frame=18359 fps=494 q=-0.0 size=N/A time=00:12:45.72 bitrate=N/A speed=20.6x    frame=18613 fps=494 q=-0.0 size=N/A time=00:12:56.31 bitrate=N/A speed=20.6x    frame=18876 fps=494 q=-0.0 size=N/A time=00:13:07.28 bitrate=N/A speed=20.6x    frame=19146 fps=495 q=-0.0 size=N/A time=00:13:18.54 bitrate=N/A speed=20.6x    frame=19402 fps=495 q=-0.0 size=N/A time=00:13:29.22 bitrate=N/A speed=20.6x    frame=19662 fps=495 q=-0.0 size=N/A time=00:13:40.06 bitrate=N/A speed=20.6x    frame=19914 fps=495 q=-0.0 size=N/A time=00:13:50.57 bitrate=N/A speed=20.6x    frame=20176 fps=495 q=-0.0 size=N/A time=00:14:01.50 bitrate=N/A speed=20.6x    frame=20436 fps=495 q=-0.0 size=N/A time=00:14:12.35 bitrate=N/A speed=20.7x    frame=20705 fps=495 q=-0.0 size=N/A time=00:14:23.57 bitrate=N/A speed=20.7x    frame=20968 fps=496 q=-0.0 size=N/A time=00:14:34.54 bitrate=N/A speed=20.7x    frame=21230 fps=496 q=-0.0 size=N/A time=00:14:45.46 bitrate=N/A speed=20.7x    frame=21485 fps=496 q=-0.0 size=N/A time=00:14:56.10 bitrate=N/A speed=20.7x    frame=21746 fps=496 q=-0.0 size=N/A time=00:15:06.98 bitrate=N/A speed=20.7x    frame=21986 fps=496 q=-0.0 size=N/A time=00:15:16.99 bitrate=N/A speed=20.7x    frame=22250 fps=496 q=-0.0 size=N/A time=00:15:28.01 bitrate=N/A speed=20.7x    frame=22508 fps=496 q=-0.0 size=N/A time=00:15:38.77 bitrate=N/A speed=20.7x    frame=22776 fps=496 q=-0.0 size=N/A time=00:15:49.94 bitrate=N/A speed=20.7x    frame=23046 fps=496 q=-0.0 size=N/A time=00:16:01.21 bitrate=N/A speed=20.7x    frame=23303 fps=496 q=-0.0 size=N/A time=00:16:11.92 bitrate=N/A speed=20.7x    frame=23574 fps=497 q=-0.0 size=N/A time=00:16:23.19 bitrate=N/A speed=20.7x    frame=23838 fps=497 q=-0.0 size=N/A time=00:16:34.24 bitrate=N/A speed=20.7x    frame=24064 fps=496 q=-0.0 size=N/A time=00:16:43.66 bitrate=N/A speed=20.7x    frame=24332 fps=497 q=-0.0 size=N/A time=00:16:54.84 bitrate=N/A speed=20.7x    frame=24602 fps=497 q=-0.0 size=N/A time=00:17:06.10 bitrate=N/A speed=20.7x    frame=24856 fps=497 q=-0.0 size=N/A time=00:17:16.70 bitrate=N/A speed=20.7x    frame=25118 fps=497 q=-0.0 size=N/A time=00:17:27.62 bitrate=N/A speed=20.7x    frame=25374 fps=497 q=-0.0 size=N/A time=00:17:38.30 bitrate=N/A speed=20.7x    frame=25627 fps=497 q=-0.0 size=N/A time=00:17:48.85 bitrate=N/A speed=20.7x    frame=25899 fps=497 q=-0.0 size=N/A time=00:18:00.20 bitrate=N/A speed=20.7x    frame=26171 fps=497 q=-0.0 size=N/A time=00:18:11.54 bitrate=N/A speed=20.7x    frame=26433 fps=497 q=-0.0 size=N/A time=00:18:22.47 bitrate=N/A speed=20.7x    frame=26705 fps=498 q=-0.0 size=N/A time=00:18:33.82 bitrate=N/A speed=20.8x    frame=26952 fps=498 q=-0.0 size=N/A time=00:18:44.12 bitrate=N/A speed=20.8x    frame=27166 fps=497 q=-0.0 size=N/A time=00:18:53.04 bitrate=N/A speed=20.7x    frame=27379 fps=496 q=-0.0 size=N/A time=00:19:01.93 bitrate=N/A speed=20.7x    frame=27592 fps=495 q=-0.0 size=N/A time=00:19:10.81 bitrate=N/A speed=20.6x    frame=27807 fps=494 q=-0.0 size=N/A time=00:19:19.78 bitrate=N/A speed=20.6x    frame=28031 fps=494 q=-0.0 size=N/A time=00:19:29.12 bitrate=N/A speed=20.6x    frame=28262 fps=493 q=-0.0 size=N/A time=00:19:38.76 bitrate=N/A speed=20.6x    frame=28474 fps=493 q=-0.0 size=N/A time=00:19:47.60 bitrate=N/A speed=20.6x    frame=28699 fps=492 q=-0.0 size=N/A time=00:19:56.98 bitrate=N/A speed=20.5x    frame=28955 fps=492 q=-0.0 size=N/A time=00:20:07.66 bitrate=N/A speed=20.5x    frame=29228 fps=493 q=-0.0 size=N/A time=00:20:19.05 bitrate=N/A speed=20.5x    frame=29490 fps=493 q=-0.0 size=N/A time=00:20:29.97 bitrate=N/A speed=20.5x    frame=29739 fps=493 q=-0.0 size=N/A time=00:20:40.36 bitrate=N/A speed=20.5x    frame=30001 fps=493 q=-0.0 size=N/A time=00:20:51.29 bitrate=N/A speed=20.6x    frame=30268 fps=493 q=-0.0 size=N/A time=00:21:02.42 bitrate=N/A speed=20.6x    frame=30543 fps=493 q=-0.0 size=N/A time=00:21:13.89 bitrate=N/A speed=20.6x    frame=30810 fps=494 q=-0.0 size=N/A time=00:21:25.03 bitrate=N/A speed=20.6x    frame=31074 fps=494 q=-0.0 size=N/A time=00:21:36.04 bitrate=N/A speed=20.6x    frame=31333 fps=494 q=-0.0 size=N/A time=00:21:46.84 bitrate=N/A speed=20.6x    frame=31602 fps=494 q=-0.0 size=N/A time=00:21:58.06 bitrate=N/A speed=20.6x    frame=31860 fps=494 q=-0.0 size=N/A time=00:22:08.82 bitrate=N/A speed=20.6x    frame=32111 fps=494 q=-0.0 size=N/A time=00:22:19.29 bitrate=N/A speed=20.6x    frame=32330 fps=493 q=-0.0 size=N/A time=00:22:28.43 bitrate=N/A speed=20.6x    frame=32568 fps=493 q=-0.0 size=N/A time=00:22:38.35 bitrate=N/A speed=20.6x    frame=32771 fps=492 q=-0.0 size=N/A time=00:22:46.82 bitrate=N/A speed=20.5x    frame=32956 fps=491 q=-0.0 size=N/A time=00:22:54.53 bitrate=N/A speed=20.5x    frame=33177 fps=491 q=-0.0 size=N/A time=00:23:03.75 bitrate=N/A speed=20.5x    frame=33363 fps=490 q=-0.0 size=N/A time=00:23:11.51 bitrate=N/A speed=20.4x    frame=33574 fps=489 q=-0.0 size=N/A time=00:23:20.31 bitrate=N/A speed=20.4x    frame=33779 fps=489 q=-0.0 size=N/A time=00:23:28.86 bitrate=N/A speed=20.4x    frame=33901 fps=487 q=-0.0 size=N/A time=00:23:33.95 bitrate=N/A speed=20.3x    frame=34109 fps=486 q=-0.0 size=N/A time=00:23:42.62 bitrate=N/A speed=20.3x    frame=34309 fps=485 q=-0.0 size=N/A time=00:23:50.97 bitrate=N/A speed=20.2x    [Parsed_psnr_10 @ 000001f705f9cf40] PSNR y:48.208750 u:51.626672 v:51.459108 average:49.063275 min:35.651562 max:inf
[out#0/null @ 000001f705b8d2c0] video:14799KiB audio:269372KiB subtitle:0KiB other streams:0KiB global headers:0KiB muxing overhead: unknown
frame=34442 fps=485 q=-0.0 Lsize=N/A time=00:23:56.51 bitrate=N/A speed=20.2x    
